<svg width="14" height="15" viewBox="0 0 14 15" fill="none" xmlns="http://www.w3.org/2000/svg">
<path d="M11.8103 7.48214L12.0156 5.52679H10.2478V4.55357C10.2478 4.2619 10.2924 4.05952 10.3817 3.94643C10.4769 3.82738 10.6912 3.76786 11.0246 3.76786H12.0067V1.8125H10.4442C9.53944 1.8125 8.89063 2.02678 8.49777 2.45536C8.10491 2.88393 7.90848 3.51786 7.90848 4.35714V5.52679H6.73884V7.48214H7.90848V13.1518H10.2478V7.48214H11.8103ZM13.8549 3V11.5714C13.8549 12.2798 13.6019 12.8839 13.096 13.3839C12.596 13.8899 11.9918 14.1429 11.2835 14.1429H2.71205C2.00372 14.1429 1.39658 13.8899 0.890625 13.3839C0.390625 12.8839 0.140625 12.2798 0.140625 11.5714V3C0.140625 2.29167 0.390625 1.6875 0.890625 1.1875C1.39658 0.681547 2.00372 0.428571 2.71205 0.428571H11.2835C11.9918 0.428571 12.596 0.681547 13.096 1.1875C13.6019 1.6875 13.8549 2.29167 13.8549 3Z" fill="#C77132"/>
</svg>
