<svg width="14" height="15" viewBox="0 0 14 15" fill="none" xmlns="http://www.w3.org/2000/svg">
<path d="M12.3013 12.0179V6.23214H11.096C11.215 6.60714 11.2746 6.99702 11.2746 7.40179C11.2746 8.15179 11.0841 8.84524 10.7031 9.48214C10.3222 10.1131 9.80432 10.6131 9.14955 10.9821C8.49479 11.3512 7.78051 11.5357 7.0067 11.5357C5.83408 11.5357 4.8311 11.1339 3.99777 10.3304C3.16443 9.52083 2.74777 8.54464 2.74777 7.40179C2.74777 6.99702 2.80729 6.60714 2.92634 6.23214H1.66741V12.0179C1.66741 12.1726 1.71801 12.3036 1.8192 12.4107C1.92634 12.5119 2.05729 12.5625 2.21205 12.5625H11.7567C11.9055 12.5625 12.0335 12.5119 12.1406 12.4107C12.2478 12.3036 12.3013 12.1726 12.3013 12.0179ZM8.95312 9.15179C9.49479 8.62798 9.76562 7.99702 9.76562 7.25893C9.76562 6.52083 9.49479 5.89286 8.95312 5.375C8.41741 4.85119 7.7686 4.58928 7.0067 4.58928C6.25074 4.58928 5.60193 4.85119 5.06027 5.375C4.52455 5.89286 4.2567 6.52083 4.2567 7.25893C4.2567 7.99702 4.52455 8.62798 5.06027 9.15179C5.60193 9.66964 6.25074 9.92857 7.0067 9.92857C7.7686 9.92857 8.41741 9.66964 8.95312 9.15179ZM12.3013 4.04464V2.57143C12.3013 2.40476 12.2418 2.2619 12.1228 2.14286C12.0037 2.01786 11.8579 1.95536 11.6853 1.95536H10.1317C9.95908 1.95536 9.81324 2.01786 9.6942 2.14286C9.57515 2.2619 9.51562 2.40476 9.51562 2.57143V4.04464C9.51562 4.21726 9.57515 4.36309 9.6942 4.48214C9.81324 4.60119 9.95908 4.66071 10.1317 4.66071H11.6853C11.8579 4.66071 12.0037 4.60119 12.1228 4.48214C12.2418 4.36309 12.3013 4.21726 12.3013 4.04464ZM13.8549 2.1875V12.3839C13.8549 12.8661 13.6823 13.2798 13.3371 13.625C12.9918 13.9702 12.5781 14.1429 12.096 14.1429H1.89955C1.41741 14.1429 1.00372 13.9702 0.658482 13.625C0.313244 13.2798 0.140625 12.8661 0.140625 12.3839V2.1875C0.140625 1.70536 0.313244 1.29167 0.658482 0.946428C1.00372 0.60119 1.41741 0.428571 1.89955 0.428571H12.096C12.5781 0.428571 12.9918 0.60119 13.3371 0.946428C13.6823 1.29167 13.8549 1.70536 13.8549 2.1875Z" fill="#C77132"/>
</svg>
