<svg width="18" height="11" viewBox="0 0 18 11" fill="none" xmlns="http://www.w3.org/2000/svg">
<path d="M17.5458 0.928571C17.6827 1.30952 17.2362 2.18452 16.2065 3.55357C16.0636 3.74405 15.8702 3.99702 15.6261 4.3125C15.1618 4.90774 14.894 5.29762 14.8225 5.48214C14.7214 5.72619 14.763 5.96726 14.9475 6.20536C15.0487 6.33036 15.2898 6.5744 15.6708 6.9375H15.6797L15.6886 6.94643L15.6975 6.95536L15.7154 6.97321C16.5547 7.75298 17.1231 8.41071 17.4208 8.94643C17.4386 8.97619 17.4565 9.01488 17.4743 9.0625C17.4981 9.10417 17.519 9.18155 17.5368 9.29464C17.5606 9.40774 17.5606 9.50893 17.5368 9.59821C17.513 9.6875 17.4386 9.77083 17.3136 9.84821C17.1886 9.91964 17.013 9.95536 16.7868 9.95536L14.5011 9.99107C14.3583 10.0208 14.1916 10.006 14.0011 9.94643C13.8106 9.8869 13.6559 9.82143 13.5368 9.75L13.3583 9.64286C13.1797 9.51786 12.9714 9.32738 12.7333 9.07143C12.4952 8.81548 12.2898 8.58631 12.1172 8.38393C11.9505 8.1756 11.769 8.00298 11.5725 7.86607C11.3821 7.72321 11.2154 7.6756 11.0725 7.72321C11.0547 7.72917 11.0309 7.74107 11.0011 7.75893C10.9714 7.77083 10.9208 7.8125 10.8493 7.88393C10.7779 7.95536 10.7124 8.04464 10.6529 8.15179C10.5993 8.25298 10.5487 8.40774 10.5011 8.61607C10.4595 8.81845 10.4416 9.04762 10.4475 9.30357C10.4475 9.39286 10.4356 9.47619 10.4118 9.55357C10.394 9.625 10.3731 9.67857 10.3493 9.71429L10.3136 9.75893C10.2065 9.87202 10.0487 9.9375 9.8404 9.95536H8.81362C8.391 9.97917 7.95647 9.93155 7.51005 9.8125C7.06362 9.6875 6.67076 9.52976 6.33147 9.33929C5.99814 9.14286 5.69159 8.94643 5.41183 8.75C5.13802 8.54762 4.92969 8.375 4.78683 8.23214L4.56362 8.01786C4.50409 7.95833 4.42076 7.86905 4.31362 7.75C4.21243 7.63095 4.00112 7.36012 3.67969 6.9375C3.35826 6.51488 3.04278 6.06548 2.73326 5.58929C2.42374 5.1131 2.05766 4.48512 1.63504 3.70536C1.21838 2.9256 0.831473 2.11607 0.47433 1.27678C0.438616 1.18155 0.420759 1.10119 0.420759 1.03571C0.420759 0.970238 0.429688 0.922619 0.447545 0.892857L0.483259 0.839285C0.572545 0.72619 0.742188 0.669642 0.992188 0.669642L3.43862 0.651785C3.51004 0.66369 3.5785 0.684523 3.64397 0.714285C3.70945 0.738095 3.75707 0.761905 3.78683 0.785714L3.83147 0.8125C3.92671 0.877976 3.99814 0.973214 4.04576 1.09821C4.16481 1.39583 4.30171 1.70536 4.45647 2.02679C4.61124 2.34226 4.73326 2.58333 4.82255 2.75L4.9654 3.00893C5.13802 3.36607 5.30469 3.67559 5.4654 3.9375C5.62612 4.1994 5.76897 4.40476 5.89397 4.55357C6.02493 4.69643 6.14993 4.80952 6.26897 4.89286C6.38802 4.97619 6.48921 5.01786 6.57255 5.01786C6.65588 5.01786 6.73624 5.00298 6.81362 4.97321C6.82552 4.96726 6.8404 4.95238 6.85826 4.92857C6.87612 4.90476 6.91183 4.83929 6.9654 4.73214C7.01897 4.625 7.05766 4.48512 7.08147 4.3125C7.11124 4.13988 7.141 3.89881 7.17076 3.58929C7.20052 3.27976 7.20052 2.90774 7.17076 2.47321C7.15885 2.23512 7.13207 2.01786 7.0904 1.82143C7.04874 1.625 7.00707 1.48809 6.9654 1.41071L6.91183 1.30357C6.76302 1.10119 6.51004 0.973214 6.1529 0.919642C6.07552 0.907737 6.0904 0.836309 6.19755 0.705357C6.29874 0.592262 6.41183 0.502976 6.53683 0.4375C6.85231 0.282738 7.56362 0.211309 8.67076 0.223214C9.15885 0.229166 9.56064 0.267857 9.87612 0.339285C9.99516 0.369047 10.0934 0.410714 10.1708 0.464285C10.2541 0.511904 10.3166 0.583333 10.3583 0.678571C10.3999 0.767857 10.4297 0.863095 10.4475 0.964285C10.4714 1.05952 10.4833 1.19345 10.4833 1.36607C10.4833 1.53869 10.4803 1.70238 10.4743 1.85714C10.4684 2.0119 10.4595 2.22321 10.4475 2.49107C10.4416 2.75298 10.4386 2.99702 10.4386 3.22321C10.4386 3.28869 10.4356 3.41369 10.4297 3.59821C10.4237 3.78274 10.4208 3.92559 10.4208 4.02679C10.4267 4.12798 10.4386 4.25 10.4565 4.39286C10.4743 4.52976 10.5071 4.64583 10.5547 4.74107C10.6083 4.83036 10.6767 4.90179 10.76 4.95536C10.8077 4.96726 10.8583 4.97917 10.9118 4.99107C10.9654 5.00298 11.0428 4.97024 11.144 4.89286C11.2452 4.81548 11.3583 4.71429 11.4833 4.58929C11.6083 4.45833 11.763 4.25893 11.9475 3.99107C12.1321 3.71726 12.3345 3.39583 12.5547 3.02679C12.9118 2.40774 13.2303 1.73809 13.51 1.01786C13.5339 0.958333 13.5636 0.907737 13.5993 0.866071C13.635 0.818452 13.6678 0.785714 13.6975 0.767857L13.7333 0.741071C13.7452 0.735119 13.76 0.729166 13.7779 0.723214C13.7958 0.711309 13.8345 0.70238 13.894 0.696428C13.9535 0.684523 14.013 0.681547 14.0725 0.6875L16.644 0.669642C16.8761 0.639881 17.0666 0.648809 17.2154 0.696428C17.3642 0.738095 17.4565 0.785714 17.4922 0.839285L17.5458 0.928571Z" fill="#C77132"/>
</svg>
